<svg width="960" height="240" viewBox="0 0 960 240" fill="none" xmlns="http://www.w3.org/2000/svg" role="img" aria-labelledby="title desc">
  <title id="title">RowPort logo</title>
  <desc id="desc">A database row mark flowing into a secure connection port with the RowPort wordmark.</desc>
  <rect width="960" height="240" rx="32" fill="#F7F8F7"/>
  <g transform="translate(56 36)">
    <rect x="0" y="0" width="168" height="168" rx="38" fill="#172026"/>
    <path d="M47 58C47 45.85 63.57 36 84 36C104.43 36 121 45.85 121 58V110C121 122.15 104.43 132 84 132C63.57 132 47 122.15 47 110V58Z" fill="#16A6A3"/>
    <path d="M121 58C121 70.15 104.43 80 84 80C63.57 80 47 70.15 47 58C47 45.85 63.57 36 84 36C104.43 36 121 45.85 121 58Z" fill="#35C7C3"/>
    <path d="M47 84C47 96.15 63.57 106 84 106C104.43 106 121 96.15 121 84" stroke="#F7F8F7" stroke-width="8" stroke-linecap="round"/>
    <path d="M47 110C47 122.15 63.57 132 84 132C104.43 132 121 122.15 121 110" stroke="#F7F8F7" stroke-width="8" stroke-linecap="round"/>
    <path d="M90 84H133C144.05 84 153 92.95 153 104C153 115.05 144.05 124 133 124H118" stroke="#F2A23A" stroke-width="12" stroke-linecap="round"/>
    <path d="M118 124L136 143" stroke="#F2A23A" stroke-width="12" stroke-linecap="round"/>
    <circle cx="130" cy="104" r="7" fill="#172026"/>
  </g>
  <g fill="#172026">
    <path d="M288.2 155V67.7H326.6C336.4 67.7 344.1 70.1 349.8 74.9C355.5 79.6 358.3 86.1 358.3 94.3C358.3 100.7 356.6 106.1 353.1 110.4C349.6 114.7 344.8 117.7 338.6 119.4L362.7 155H343.5L321.4 122.1H305.2V155H288.2ZM305.2 107.6H325.3C330.2 107.6 334 106.5 336.7 104.2C339.4 101.9 340.8 98.8 340.8 94.8C340.8 90.8 339.4 87.7 336.7 85.5C334 83.2 330.2 82.1 325.3 82.1H305.2V107.6Z"/>
    <path d="M402.2 156.4C392.4 156.4 384.4 153.3 378.3 147.1C372.2 140.8 369.1 132.7 369.1 122.8C369.1 112.9 372.2 104.8 378.3 98.6C384.4 92.3 392.4 89.2 402.2 89.2C411.9 89.2 419.9 92.3 426 98.6C432.2 104.8 435.2 112.9 435.2 122.8C435.2 132.7 432.2 140.8 426 147.1C419.9 153.3 411.9 156.4 402.2 156.4ZM402.2 141.9C407.1 141.9 411 140.1 414 136.6C417 133 418.5 128.4 418.5 122.8C418.5 117.2 417 112.6 414 109.1C411 105.5 407.1 103.7 402.2 103.7C397.2 103.7 393.2 105.5 390.2 109.1C387.2 112.6 385.8 117.2 385.8 122.8C385.8 128.4 387.2 133 390.2 136.6C393.2 140.1 397.2 141.9 402.2 141.9Z"/>
    <path d="M459.3 155L440.9 90.6H457.7L468.7 136.8L482.2 90.6H497.3L510.8 136.8L521.8 90.6H538.6L520.2 155H503.5L489.8 109.8L476.1 155H459.3Z"/>
    <path d="M550.5 155V67.7H587.4C597.4 67.7 605.2 70.3 611 75.5C616.9 80.6 619.8 87.5 619.8 96.1C619.8 104.8 616.9 111.8 611 117C605.2 122.1 597.4 124.7 587.4 124.7H567.5V155H550.5ZM567.5 110.2H585.9C591.1 110.2 595.1 109 597.9 106.5C600.8 104 602.2 100.5 602.2 96.1C602.2 91.8 600.8 88.4 597.9 85.9C595.1 83.4 591.1 82.1 585.9 82.1H567.5V110.2Z"/>
    <path d="M662.3 156.4C652.5 156.4 644.5 153.3 638.4 147.1C632.3 140.8 629.2 132.7 629.2 122.8C629.2 112.9 632.3 104.8 638.4 98.6C644.5 92.3 652.5 89.2 662.3 89.2C672 89.2 680 92.3 686.1 98.6C692.3 104.8 695.3 112.9 695.3 122.8C695.3 132.7 692.3 140.8 686.1 147.1C680 153.3 672 156.4 662.3 156.4ZM662.3 141.9C667.2 141.9 671.1 140.1 674.1 136.6C677.1 133 678.6 128.4 678.6 122.8C678.6 117.2 677.1 112.6 674.1 109.1C671.1 105.5 667.2 103.7 662.3 103.7C657.3 103.7 653.3 105.5 650.3 109.1C647.3 112.6 645.9 117.2 645.9 122.8C645.9 128.4 647.3 133 650.3 136.6C653.3 140.1 657.3 141.9 662.3 141.9Z"/>
    <path d="M710.1 155V90.6H726.1V101.4C728 97.7 730.8 94.8 734.5 92.7C738.3 90.5 742.5 89.4 747.2 89.4V105.3H743.4C738.2 105.3 734.1 106.7 731.1 109.6C728.1 112.5 726.6 116.8 726.6 122.5V155H710.1Z"/>
    <path d="M785.9 156C778.8 156 773.3 154.2 769.4 150.5C765.6 146.8 763.7 141.5 763.7 134.6V104.6H753V90.6H763.7V74.9H780.2V90.6H797.9V104.6H780.2V132.6C780.2 135.6 780.9 137.8 782.4 139.1C783.9 140.4 786.2 141.1 789.5 141.1H797.9V155C794.1 155.7 790.1 156 785.9 156Z"/>
  </g>
</svg>
