<svg width="1024" height="1024" viewBox="0 0 1024 1024" fill="none" xmlns="http://www.w3.org/2000/svg" role="img" aria-labelledby="title desc">
  <title id="title">RowPort app icon</title>
  <desc id="desc">A database cylinder connected to a secure port.</desc>
  <rect width="1024" height="1024" rx="226" fill="#172026"/>
  <path d="M218 350C218 268.81 318.74 203 443 203C567.26 203 668 268.81 668 350V674C668 755.19 567.26 821 443 821C318.74 821 218 755.19 218 674V350Z" fill="#16A6A3"/>
  <path d="M668 350C668 431.19 567.26 497 443 497C318.74 497 218 431.19 218 350C218 268.81 318.74 203 443 203C567.26 203 668 268.81 668 350Z" fill="#35C7C3"/>
  <path d="M218 512C218 593.19 318.74 659 443 659C567.26 659 668 593.19 668 512" stroke="#F7F8F7" stroke-width="52" stroke-linecap="round"/>
  <path d="M218 674C218 755.19 318.74 821 443 821C567.26 821 668 755.19 668 674" stroke="#F7F8F7" stroke-width="52" stroke-linecap="round"/>
  <rect x="532" y="530" width="206" height="72" rx="36" fill="#F2A23A"/>
  <rect x="680" y="482" width="168" height="168" rx="62" fill="#F2A23A"/>
  <rect x="725" y="527" width="78" height="78" rx="26" fill="#172026"/>
  <circle cx="764" cy="566" r="34" fill="#F7F8F7"/>
  <path d="M764 603V664" stroke="#F7F8F7" stroke-width="32" stroke-linecap="round"/>
  <path d="M250 208L202 256" stroke="#F2A23A" stroke-width="28" stroke-linecap="round"/>
  <path d="M822 210L870 258" stroke="#16A6A3" stroke-width="28" stroke-linecap="round"/>
</svg>
